HIERARCHY
ROOT Hips
{
	OFFSET 0.00000 0.00000 0.00000
	CHANNELS 6 Xposition Yposition Zposition Zrotation Yrotation Xrotation 
	JOINT LHipJoint
	{
		OFFSET 0 0 0
		CHANNELS 3 Zrotation Yrotation Xrotation
		JOINT LeftHip
		{
			OFFSET 1.37590 -1.78394 0.89329
			CHANNELS 3 Zrotation Yrotation Xrotation
			JOINT LeftKnee
			{
				OFFSET 2.47928 -6.81178 0.00000
				CHANNELS 3 Zrotation Yrotation Xrotation
				JOINT LeftAnkle
				{
					OFFSET 2.63345 -7.23535 0.00000
					CHANNELS 3 Zrotation Yrotation Xrotation
					JOINT LeftToe
					{
						OFFSET 0.23938 -0.65768 2.27012
						CHANNELS 3 Zrotation Yrotation Xrotation
						End Site
						{
							OFFSET 0.00000 -0.00000 1.18363
						}
					}
				}
			}
		}
	}
	JOINT RHipJoint
	{
		OFFSET 0 0 0
		CHANNELS 3 Zrotation Yrotation Xrotation
		JOINT RightHip
		{
			OFFSET -1.33617 -1.78394 0.89329
			CHANNELS 3 Zrotation Yrotation Xrotation
			JOINT RightKnee
			{
				OFFSET -2.56922 -7.05888 0.00000
				CHANNELS 3 Zrotation Yrotation Xrotation
				JOINT RightAnkle
				{
					OFFSET -2.56568 -7.04915 0.00000
					CHANNELS 3 Zrotation Yrotation Xrotation
					JOINT RightToe
					{
						OFFSET -0.27533 -0.75646 2.18105
						CHANNELS 3 Zrotation Yrotation Xrotation
						End Site
						{
							OFFSET -0.00000 -0.00000 1.15233
						}
					}
				}
			}
		}
	}
	JOINT lowerback
	{
		OFFSET 0 0 0
		CHANNELS 3 Zrotation Yrotation Xrotation
		JOINT Chest
		{
			OFFSET 0.06190 2.15152 -0.00935
			CHANNELS 3 Zrotation Yrotation Xrotation
			JOINT Chest2
			{
				OFFSET 0.06334 2.15332 0.00872
				CHANNELS 3 Zrotation Yrotation Xrotation
				JOINT lowerneck
				{
					OFFSET 0 0 0
					CHANNELS 3 Zrotation Yrotation Xrotation
					JOINT Neck
					{
						OFFSET -0.04202 1.66908 0.23524
						CHANNELS 3 Zrotation Yrotation Xrotation
						JOINT Head
						{
							OFFSET 0.07510 1.69357 -0.24440
							CHANNELS 3 Zrotation Yrotation Xrotation
							End Site
							{
								OFFSET 0.02556 1.71719 -0.11000
							}
						}
					}
				}
				JOINT LeftCollar
				{
					OFFSET 0 0 0
					CHANNELS 3 Zrotation Yrotation Xrotation
					JOINT LeftShoulder
					{
						OFFSET 3.67168 1.26306 -0.41342
CHANNELS 3 Zrotation Xrotation Yrotation
						JOINT LeftElbow
						{
OFFSET 0 -4.685100 -0.000000
CHANNELS 3 Zrotation Xrotation Yrotation
							JOINT LeftWrist
							{
OFFSET 0 -3.396260 -0.000000
CHANNELS 3 Zrotation Xrotation Yrotation
								JOINT lhand
								{
									OFFSET 0 0 0
CHANNELS 3 Zrotation Xrotation Yrotation
									JOINT LFingers
									{
OFFSET 0 -0.486080 -0.000000
CHANNELS 3 Zrotation Xrotation Yrotation
										End Site
										{
OFFSET 0 -0.391890 -0.000000
										}
									}
								}
								JOINT LThumb
								{
OFFSET 0 0.000000 0.000000
CHANNELS 3 Zrotation Xrotation Yrotation
									End Site
									{
OFFSET 0 -0.397870 0.397870
									}
								}
							}
						}
					}
				}
				JOINT RightCollar
				{
					OFFSET 0 0 0
					CHANNELS 3 Zrotation Yrotation Xrotation
					JOINT RightShoulder
					{
						OFFSET -3.04136 1.42992 -0.76390
CHANNELS 3 Zrotation Xrotation Yrotation
						JOINT RightElbow
						{
OFFSET 0 -5.555760 -0.000000
CHANNELS 3 Zrotation Xrotation Yrotation
							JOINT RightWrist
							{
OFFSET 0 -3.327740 -0.000000
CHANNELS 3 Zrotation Xrotation Yrotation
								JOINT rhand
								{
									OFFSET 0 0 0
CHANNELS 3 Zrotation Xrotation Yrotation
									JOINT RFingers
									{
OFFSET 0 -0.507630 -0.000000
CHANNELS 3 Zrotation Xrotation Yrotation
										End Site
										{
OFFSET 0 -0.409260 -0.000000
										}
									}
								}
								JOINT RThumb
								{
OFFSET 0 0.000000 0.000000
CHANNELS 3 Zrotation Xrotation Yrotation
									End Site
									{
OFFSET 0 -0.415510 0.415510
									}
								}
							}
						}
					}
				}
			}
		}
	}
}
MOTION
Frames: 16
Frame Time: .0083333
-8.8330 17.9478 4.7264 230.3060 -83.9819 -222.4700 0.0000 0.0000 0.0000 -14.6036 -11.0015 -19.7013 1.2755 7.1576 20.1832 0.0584 2.0890 -5.8322 0.0001 -0.0737 -0.2026 0.0000 0.0000 0.0000 22.8678 1.1759 -12.3984 -6.7750 -15.1395 48.0183 0.0971 -6.2297 0.8105 -0.0022 -0.3008 0.8265 2.5622 2.8623 -1.2320 1.7002 3.7872 -1.8750 0.3191 1.8572 -1.1821 -4.4847 -1.7159 -19.1452 6.8866 -2.6101 17.2428 2.7409 -0.8127 8.6923 -0.0000 0.0000 0.0000 2.4701 7.0027 17.0862 9.9750 -16.7004 1.4678 5.9204 44.8251 -21.7239 0.0 0.0 0.0 -7.1250 0.0 0.0 -22.6447 50.3869 3.1473 -0.0000 0.0000 0.0000 -6.3314 8.0418 -33.988 -6.6195 -11.2913 -0.6551 -14.8621 54.8442 32.4947 0.0 0.0 0.0 7.1250 0.0 -0.0 20.8308 62.1654 -8.9023
-9.0074 17.9590 4.7366 227.9160 -84.1251 -220.1860 0.0000 0.0000 0.0000 -15.1781 -10.7109 -18.9286 1.2654 7.1304 20.1024 0.0708 1.7894 -6.0201 0.0000 0.0190 0.0522 0.0000 0.0000 0.0000 22.3468 1.4319 -13.4586 -7.1490 -15.4561 49.4358 0.1129 -6.8376 1.0986 -0.0032 -0.3680 1.0112 2.2845 2.5810 -1.1507 1.6853 3.4175 -1.8620 0.4525 1.6764 -1.2337 -4.2982 -1.5104 -19.1743 6.7318 -2.3546 17.3767 2.6921 -0.6955 8.7224 -0.0000 0.0000 0.0000 2.8678 6.5833 17.2692 9.9245 -16.6214 1.4533 6.3772 45.25 -21.9314 0.0 0.0 0.0 -7.1250 0.0 0.0 -22.3256 50.6497 3.2483 -0.0000 0.0000 0.0000 -6.7424 9.0525 -33.8274 -6.7141 -11.4478 -0.6738 -14.5388 53.7302 32.4074 0.0 0.0 0.0 7.1250 0.0 -0.0 21.1045 62.0035 -8.9442
-9.1802 17.9702 4.7462 225.5820 -84.2746 -217.9570 0.0000 0.0000 0.0000 -15.7445 -10.4205 -18.1407 1.2513 7.0918 19.9878 0.0833 1.4870 -6.2131 0.0003 0.1059 0.2910 0.0000 0.0000 0.0000 21.8377 1.6852 -14.5410 -7.5091 -15.7460 50.7746 0.1310 -7.4320 1.3047 -0.0047 -0.4440 1.2200 2.0073 2.2967 -1.0643 1.6722 3.0435 -1.8491 0.5885 1.4935 -1.2853 -4.1124 -1.3117 -19.1966 6.5738 -2.1078 17.5115 2.6412 -0.5831 8.7531 0.0000 0.0000 0.0000 3.2799 6.136 17.4321 9.8747 -16.5433 1.4391 6.8143 45.6774 -22.1549 0.0 0.0 0.0 -7.1250 0.0 0.0 -22.0315 50.9255 3.3561 0.0000 0.0000 0.0000 -7.1689 10.0147 -33.549 -6.8145 -11.6135 -0.6938 -14.2333 52.5211 32.3398 0.0 0.0 0.0 7.1250 0.0 -0.0 21.3748 61.8647 -8.9943
-9.3515 17.9813 4.7553 223.3090 -84.4325 -215.7890 0.0000 0.0000 0.0000 -16.3005 -10.1319 -17.3430 1.2337 7.0436 19.8447 0.0958 1.1849 -6.4084 0.0008 0.1772 0.4867 0.0000 0.0000 0.0000 21.3420 1.9333 -15.6397 -7.8500 -16.0078 52.0206 0.1520 -8.0138 1.4273 -0.0067 -0.5298 1.4558 1.7309 2.0105 -0.9736 1.6609 2.6664 -1.8351 0.7275 1.3091 -1.3350 -3.9375 -1.1233 -19.2197 6.4202 -1.8731 17.6505 2.5921 -0.4767 8.7872 -0.0000 -0.0000 0.0000 3.7058 5.658 17.5743 9.8252 -16.4657 1.425 7.2262 46.1064 -22.3772 0.0 0.0 0.0 -7.1250 0.0 0.0 -21.7595 51.1978 3.4613 -0.0000 -0.0000 0.0000 -7.6082 10.9204 -33.1937 -6.9183 -11.7847 -0.7149 -13.9558 51.2552 32.2929 0.0 0.0 0.0 7.1250 0.0 -0.0 21.6322 61.7524 -9.0506
-9.5210 17.9921 4.7636 221.0230 -84.5906 -213.6030 0.0000 0.0000 0.0000 -16.8432 -9.8393 -16.5421 1.2129 6.9863 19.6746 0.1087 0.8888 -6.6183 0.0013 0.2305 0.6333 0.0000 0.0000 0.0000 20.8607 2.1849 -16.7523 -8.1682 -16.2416 53.1663 0.1761 -8.5821 1.4669 -0.0094 -0.6245 1.7161 1.4546 1.7262 -0.8810 1.6514 2.2912 -1.8217 0.8695 1.1257 -1.3831 -3.7687 -0.9443 -19.2410 6.2682 -1.6499 17.7913 2.5431 -0.3761 8.8233 0.0000 0.0000 0.0000 4.1454 5.1528 17.6832 9.7777 -16.3911 1.4116 7.6185 46.526 -22.6092 0.0 0.0 0.0 -7.1250 0.0 0.0 -21.5098 51.477 3.5703 0.0000 0.0000 0.0000 -8.0547 11.7688 -32.7922 -7.0257 -11.9615 -0.737 -13.7072 49.9598 32.2682 0.0 0.0 0.0 7.1250 0.0 -0.0 21.8775 61.6681 -9.115
-9.6890 18.0027 4.7713 218.7910 -84.7547 -211.4690 0.0000 0.0000 0.0000 -17.3706 -9.5468 -15.7364 1.1894 6.9206 19.4803 0.1221 0.5861 -6.8399 0.0016 0.2612 0.7178 0.0000 0.0000 0.0000 20.3972 2.4285 -17.8688 -8.4579 -16.4459 54.1956 0.2037 -9.1398 1.4249 -0.0128 -0.7317 2.0109 1.1822 1.4421 -0.7844 1.6440 1.9157 -1.8079 1.0129 0.9422 -1.4298 -3.6077 -0.7758 -19.2591 6.1184 -1.4394 17.9331 2.4945 -0.2819 8.8607 -0.0000 -0.0000 0.0000 4.5977 4.6197 17.7555 9.7334 -16.3214 1.3991 7.9941 46.9313 -22.8411 0.0 0.0 0.0 -7.1250 0.0 0.0 -21.2751 51.7545 3.6774 -0.0000 -0.0000 0.0000 -8.5044 12.5571 -32.3776 -7.1347 -12.1408 -0.7597 -13.4957 48.6675 32.2661 0.0 0.0 0.0 7.1250 0.0 -0.0 22.1020 61.6139 -9.1852
-9.8555 18.0128 4.7783 216.5930 -84.9228 -209.3650 0.0000 0.0000 0.0000 -17.8809 -9.2518 -14.9287 1.1632 6.8467 19.2619 0.1357 0.2728 -7.0619 0.0019 0.2814 0.7732 0.0000 0.0000 0.0000 19.9527 2.6645 -18.9839 -8.7145 -16.6204 55.0973 0.2347 -9.6854 1.3061 -0.0173 -0.8504 2.3374 0.9138 1.1603 -0.6867 1.6393 1.5425 -1.7935 1.1580 0.7599 -1.4731 -3.4538 -0.6184 -19.2746 5.9701 -1.2424 18.0750 2.4459 -0.1946 8.8992 -0.0000 0.0000 0.0000 5.061 4.0584 17.7857 9.6928 -16.2577 1.3877 8.3522 47.3159 -23.0754 0.0 0.0 0.0 -7.1250 0.0 0.0 -21.0580 52.0327 3.7846 -0.0000 0.0000 0.0000 -8.9524 13.2832 -31.9764 -7.2452 -12.3221 -0.7831 -13.3243 47.4028 32.2892 0.0 0.0 0.0 7.1250 0.0 -0.0 22.3054 61.5927 -9.2632
-10.0205 18.0224 4.7847 214.4270 -85.0933 -207.2900 0.0000 0.0000 0.0000 -18.3713 -8.9543 -14.1225 1.1349 6.7659 19.0236 0.1491 -0.0452 -7.2767 0.0019 0.2847 0.7822 0.0000 0.0000 0.0000 19.5291 2.8933 -20.0909 -8.9336 -16.7648 55.8600 0.2690 -10.2190 1.1138 -0.0233 -0.9848 2.7070 0.6510 0.8818 -0.5880 1.6372 1.1733 -1.7794 1.3039 0.5795 -1.5141 -3.3083 -0.4728 -19.2872 5.8240 -1.0594 18.2178 2.3976 -0.1144 8.9390 -0.0000 0.0000 0.0000 5.5348 3.4704 17.7682 9.6571 -16.2015 1.3777 8.6943 47.6722 -23.3103 0.0 0.0 0.0 -7.1250 0.0 0.0 -20.8558 52.3098 3.8909 -0.0000 0.0000 0.0000 -9.3949 13.9479 -31.6014 -7.3559 -12.5036 -0.8069 -13.2043 46.183 32.3384 0.0 0.0 0.0 7.1250 0.0 -0.0 22.4770 61.6079 -9.3467
-10.1840 18.0314 4.7904 212.2810 -85.2665 -205.2280 0.0000 0.0000 0.0000 -18.8423 -8.6570 -13.3184 1.1048 6.6785 18.7663 0.1620 -0.3618 -7.4806 0.0018 0.2756 0.7571 0.0000 0.0000 0.0000 19.1264 3.1140 -21.1837 -9.1108 -16.8785 56.4724 0.3063 -10.7384 0.8537 -0.0309 -1.1340 3.1176 0.3938 0.6079 -0.4897 1.6376 0.8095 -1.7656 1.4503 0.4017 -1.5520 -3.1748 -0.3385 -19.2944 5.6857 -0.8902 18.3586 2.3521 -0.0408 8.9786 -0.0000 0.0000 0.0000 6.017 2.8566 17.6961 9.6279 -16.1555 1.3696 9.0191 47.9909 -23.5496 0.0 0.0 0.0 -7.1250 0.0 0.0 -20.6722 52.5891 3.9992 -0.0000 0.0000 0.0000 -9.8268 14.5504 -31.2727 -7.4665 -12.6844 -0.831 -13.1373 45.0261 32.4147 0.0 0.0 0.0 7.1250 0.0 -0.0 22.6162 61.6609 -9.4363
-10.3462 18.0396 4.7956 210.1520 -85.4411 -203.1760 0.0000 0.0000 0.0000 -19.2919 -8.3603 -12.5198 1.0735 6.5863 18.4954 0.1744 -0.6791 -7.6748 0.0016 0.2560 0.7032 0.0000 0.0000 0.0000 18.7462 3.3271 -22.2557 -9.2424 -16.9612 56.9246 0.3461 -11.2414 0.5310 -0.0403 -1.2965 3.5649 0.1437 0.3401 -0.3929 1.6402 0.4530 -1.7521 1.5960 0.2276 -1.5864 -3.0478 -0.2170 -19.3001 5.5475 -0.7368 18.5011 2.3057 0.0247 9.0199 -0.0000 0.0000 0.0000 6.5068 2.2173 17.565 9.6067 -16.122 1.3637 9.3256 48.2644 -23.7861 0.0 0.0 0.0 -7.1250 0.0 0.0 -20.5046 52.8636 4.1055 -0.0000 0.0000 0.0000 -10.243 15.0919 -30.998 -7.5765 -12.864 -0.8554 -13.1325 43.9436 32.5182 0.0 0.0 0.0 7.1250 0.0 -0.0 22.7137 61.7541 -9.5296
-10.5072 18.0470 4.8001 208.0020 -85.6165 -201.0970 0.0000 0.0000 0.0000 -19.7219 -8.0652 -11.7302 1.0415 6.4904 18.2142 0.1862 -0.9961 -7.8595 0.0012 0.2252 0.6188 0.0000 0.0000 0.0000 18.3872 3.5341 -23.3020 -9.3253 -17.0126 57.2085 0.3877 -11.7257 0.1502 -0.0520 -1.4711 4.0460 -0.1020 0.0786 -0.3002 1.6450 0.1045 -1.7388 1.7423 0.0574 -1.6160 -2.9320 -0.1072 -19.3033 5.4161 -0.5976 18.6423 2.2616 0.0834 9.0616 0.0000 -0.0000 0.0000 7.0015 1.5556 17.3592 9.5958 -16.1048 1.3607 9.6265 48.4767 -24.0242 0.0 0.0 0.0 -7.1250 0.0 0.0 -20.3432 53.1396 4.2115 0.0000 -0.0000 0.0000 -10.6414 15.5741 -30.7693 -7.6865 -13.0434 -0.88 -13.1906 42.9331 32.6531 0.0 0.0 0.0 7.1250 0.0 -0.0 22.7732 61.8912 -9.63
-10.6671 18.0536 4.8040 205.8160 -85.7934 -198.9720 0.0000 0.0000 0.0000 -20.1331 -7.7743 -10.9512 1.0091 6.3919 17.9257 0.1973 -1.3088 -8.0325 0.0008 0.1848 0.5076 0.0000 0.0000 0.0000 18.0484 3.7350 -24.3166 -9.3571 -17.0321 57.3170 0.4307 -12.1898 -0.2845 -0.0659 -1.6563 4.5566 -0.3438 -0.1756 -0.2114 1.6517 -0.2348 -1.7263 1.8891 -0.1082 -1.6417 -2.8248 -0.0100 -19.3055 5.2881 -0.4738 18.7843 2.2181 0.1345 9.1046 0.0000 0.0000 0.0000 7.4999 0.8722 17.0769 9.5958 -16.1048 1.3607 9.9189 48.624 -24.2595 0.0 0.0 0.0 -7.1250 0.0 0.0 -20.1885 53.4123 4.3149 0.0000 0.0000 0.0000 -11.0172 15.9987 -30.5959 -7.7959 -13.2214 -0.9049 -13.3147 42.0044 32.8203 0.0 0.0 0.0 7.1250 0.0 -0.0 22.7924 62.0743 -9.7374
-10.8259 18.0592 4.8073 203.5740 -85.9732 -196.7830 0.0000 0.0000 0.0000 -20.5269 -7.4891 -10.1851 0.9768 6.2916 17.6330 0.2076 -1.6195 -8.1917 0.0004 0.1341 0.3684 0.0000 0.0000 0.0000 17.7287 3.9277 -25.2945 -9.3361 -17.0192 57.2454 0.4742 -12.6305 -0.7688 -0.0822 -1.8497 5.0905 -0.5826 -0.4225 -0.1272 1.6598 -0.5650 -1.7148 2.0361 -0.2694 -1.6633 -2.7281 0.0748 -19.3048 5.1663 -0.3654 18.9253 2.1764 0.1781 9.1478 0.0000 -0.0000 0.0000 7.9997 0.1698 16.7106 9.6091 -16.1258 1.3644 10.203 48.6931 -24.4938 0.0 0.0 0.0 -7.1250 0.0 0.0 -20.0416 53.6836 4.417 0.0000 -0.0000 0.0000 -11.3675 16.3656 -30.4856 -7.9033 -13.396 -0.9296 -13.5051 41.1677 33.0164 0.0 0.0 0.0 7.1250 0.0 -0.0 22.7685 62.3005 -9.8483
-10.9837 18.0640 4.8101 201.2670 -86.1544 -194.5200 0.0000 0.0000 0.0000 -20.9017 -7.2103 -9.4333 0.9449 6.1909 17.3393 0.2169 -1.9299 -8.3373 0.0001 0.0777 0.2135 0.0000 0.0000 0.0000 17.4295 4.1131 -26.2309 -9.2618 -16.9733 56.9911 0.5174 -13.0446 -1.3001 -0.1008 -2.0475 5.6369 -0.8171 -0.6612 -0.0492 1.6695 -0.8847 -1.7039 2.1828 -0.4253 -1.6797 -2.6408 0.1470 -19.3025 5.0497 -0.2727 19.0651 2.1359 0.2142 9.1913 0.0000 -0.0000 0.0000 8.4986 -0.552 16.2597 9.6363 -16.1687 1.3719 10.4826 48.6845 -24.7261 0.0 0.0 0.0 -7.1250 0.0 0.0 -19.8981 53.9529 4.5168 0.0000 -0.0000 0.0000 -11.6889 16.6787 -30.4251 -8.0096 -13.5685 -0.9544 -13.7626 40.4132 33.241 0.0 0.0 0.0 7.1250 0.0 -0.0 22.7003 62.5702 -9.9615
-11.1408 18.0677 4.8122 198.8680 -86.3375 -192.1550 0.0000 0.0000 0.0000 -21.2584 -6.9381 -8.6977 0.9138 6.0910 17.0486 0.2253 -2.2400 -8.4689 0.0000 0.0169 0.0465 0.0000 0.0000 0.0000 17.1491 4.2906 -27.1217 -9.1347 -16.8936 56.5546 0.5595 -13.4293 -1.8766 -0.1214 -2.2462 6.1866 -1.0482 -0.8915 0.0226 1.6804 -1.1936 -1.6936 2.3289 -0.5760 -1.6913 -2.5636 0.2065 -19.2990 4.9403 -0.1959 19.2041 2.0975 0.2427 9.2353 0.0000 0.0000 0.0000 8.9953 -1.2886 15.7109 9.6806 -16.2384 1.3843 10.7548 48.5786 -24.96 0.0 0.0 0.0 -7.1250 0.0 0.0 -19.7629 54.2232 4.617 0.0000 0.0000 0.0000 -11.9789 16.9408 -30.4101 -8.1145 -13.7383 -0.9791 -14.0849 39.7389 33.4881 0.0 0.0 0.0 7.1250 0.0 -0.0 22.5850 62.8776 -10.0715
-11.2972 18.0703 4.8137 196.3810 -86.5214 -189.6920 0.0000 0.0000 0.0000 -21.5950 -6.6731 -7.9799 0.8840 5.9934 16.7652 0.2328 -2.5501 -8.5886 0.0001 -0.0486 -0.1336 0.0000 0.0000 0.0000 16.8890 4.4608 -27.9633 -8.9562 -16.7794 55.9385 0.5995 -13.7812 -2.4985 -0.1447 -2.4516 6.7554 -1.2741 -1.1128 0.0877 1.6932 -1.4909 -1.6833 2.4741 -0.7211 -1.6972 -2.4965 0.2536 -19.2955 4.8374 -0.1347 19.3415 2.0608 0.2639 9.2797 0.0000 -0.0000 0.0000 9.4866 -2.0398 15.0642 9.7436 -16.3375 1.402 11.0121 48.3696 -25.196 0.0 0.0 0.0 -7.1250 0.0 0.0 -19.6438 54.4935 4.7193 0.0000 -0.0000 0.0000 -12.236 17.1526 -30.4403 -8.2172 -13.9043 -1.0037 -14.4687 39.1461 33.7511 0.0 0.0 0.0 7.1250 0.0 -0.0 22.4198 63.2165 -10.1722
